<?xml version="1.0" encoding="utf-8"?>
<!-- Generator: Adobe Illustrator 16.0.0, SVG Export Plug-In . SVG Version: 6.00 Build 0)  -->
<!DOCTYPE svg PUBLIC "-//W3C//DTD SVG 1.1//EN" "http://www.w3.org/Graphics/SVG/1.1/DTD/svg11.dtd">
<svg version="1.1" id="Layer_2" xmlns="http://www.w3.org/2000/svg" xmlns:xlink="http://www.w3.org/1999/xlink" x="0px" y="0px"
	 width="524.5px" height="196.5px" viewBox="0 0 524.5 196.5" enable-background="new 0 0 524.5 196.5" xml:space="preserve">
<g>
	<path fill="#FFCC33" d="M171.885,36.712L184.417,14c-2.979,2.791-4.476,3.668-7.241,5.566
		c-15.152,10.403-33.801,12.875-52.541,28.291c-12.711,10.459-18.579,25.615-18.579,25.615s17.062-19.163,42.862-28.721
		C159.326,40.896,166.585,38.778,171.885,36.712z"/>
	<path fill="#006633" d="M165.202,48.83c-13.579,4.331-29.757,8.452-46.328,19.634c-12.909,8.713-20.405,23.578-20.405,23.578
		s18.198-18.205,44.658-24.419c5.323-1.248,9.793-2.291,13.538-3.162L165.202,48.83z"/>
	<path fill="#006633" d="M119.988,162.81V94.45c18.294-14.499,30.119-17.437,30.089-17.437c-6.501,0.59-20.083,1.81-35.962,10.658
		c-10.447,5.818-18.692,13.773-18.692,13.773l-0.02,0.056l-0.01-0.017c-3.101,5.821-7.4,15.503-11.611,25.906L62.833,89.15H35.372
		l8.78,8.784v64.688l-8.78,8.78h30.035l-8.924-8.78v-50.188l19.624,35.114c-2.926,8.251-5.231,15.623-6.19,20.36l6.314-7.332
		c0,0,5.124-24.407,25.319-48.359v51.178l-8.782,8.198h31.223l3.644,0.002L119.988,162.81z"/>
</g>
<g>
	<path fill="#000000" d="M149.5,127.448v-25.926h4.188v25.926H149.5z"/>
	<path fill="#000000" d="M172.433,127.448v-12.252c0-2.382-0.653-3.805-2.843-3.805c-2.88,0-4.992,3.036-4.992,6.876v9.181h-4.109
		v-19.09h3.917c0,1.037-0.077,2.688-0.269,3.765h0.038c1.113-2.458,3.418-4.148,6.645-4.148c4.34,0,5.685,2.766,5.685,6.108v13.365
		H172.433z"/>
	<path fill="#000000" d="M194.484,102.866c-0.845-0.27-1.768-0.385-2.612-0.385c-2.458,0-3.571,1.346-3.571,4.341v1.536h4.955v3.189
		h-4.955v15.9h-4.071v-15.9h-3.649v-3.189h3.649v-1.46c0-5.224,2.496-7.759,7.451-7.759c1.075,0,2.112,0.114,3.11,0.347
		L194.484,102.866z"/>
	<path fill="#000000" d="M204.048,127.832c-5.302,0-8.759-2.958-8.759-9.679c0-5.761,3.727-10.179,9.526-10.179
		c5.108,0,8.719,2.842,8.719,9.564C213.534,123.415,209.693,127.832,204.048,127.832z M204.471,111.432
		c-2.498,0-4.917,1.92-4.917,6.3c0,4.301,1.689,6.567,4.878,6.567c2.65,0,4.878-2.073,4.878-6.491
		C209.31,113.736,207.734,111.432,204.471,111.432z"/>
	<path fill="#000000" d="M228.52,112.047c-3.805-0.731-5.647,1.92-5.647,7.644v7.758h-4.11v-19.09h3.919
		c0,1.076-0.115,2.767-0.385,4.225h0.077c0.845-2.572,2.765-4.954,6.337-4.57L228.52,112.047z"/>
	<path fill="#000000" d="M256.637,127.448v-12.176c0-2.344-0.575-3.881-2.766-3.881c-2.459,0-4.917,2.729-4.917,6.953v9.104h-4.032
		v-12.176c0-2.19-0.461-3.881-2.765-3.881c-2.612,0-4.879,2.92-4.879,6.953v9.104h-4.108v-19.09h3.916
		c0,1.037-0.076,2.611-0.268,3.765l0.077,0.038c1.114-2.535,3.493-4.187,6.453-4.187c3.763,0,4.992,2.419,5.3,4.109
		c0.805-1.805,2.92-4.109,6.376-4.109c3.649,0,5.685,1.997,5.685,6.298v13.176H256.637z"/>
	<path fill="#000000" d="M277.653,127.448c0-1.229,0.039-2.498,0.192-3.533l-0.039-0.039c-0.921,2.266-3.304,3.956-6.337,3.956
		c-3.264,0-5.34-2.189-5.34-5.301c0-4.301,4.265-6.646,11.254-6.646v-1.112c0-2.344-0.998-3.611-3.994-3.611
		c-1.767,0-3.917,0.576-5.453,1.384l-0.808-3.303c1.922-0.731,4.494-1.269,6.952-1.269c5.801,0,7.414,2.535,7.414,6.337v7.914
		c0,1.65,0.037,3.608,0.114,5.223H277.653z M277.384,118.652c-5.721,0-7.297,1.574-7.297,3.38c0,1.46,1,2.574,2.613,2.574
		c2.804,0,4.684-2.689,4.684-5.417V118.652z"/>
	<path fill="#000000" d="M294.021,127.793c-4.071,0-5.299-1.574-5.299-5.838v-10.407h-3.65v-3.189h3.65v-6.068l4.108-1.114v7.183
		h4.993v3.189h-4.993v9.141c0,2.841,0.575,3.61,2.497,3.61c0.845,0,1.651-0.114,2.343-0.271l0.346,3.305
		C296.862,127.602,295.288,127.793,294.021,127.793z"/>
	<path fill="#000000" d="M305.086,104.979c-1.46,0-2.651-1.114-2.651-2.572c0-1.422,1.191-2.574,2.651-2.574
		c1.42,0,2.61,1.152,2.61,2.574C307.696,103.827,306.506,104.979,305.086,104.979z M303.013,127.448v-19.09h4.107v19.09H303.013z"/>
	<path fill="#000000" d="M321.026,127.832c-5.3,0-8.756-2.958-8.756-9.679c0-5.761,3.725-10.179,9.524-10.179
		c5.108,0,8.719,2.842,8.719,9.564C330.514,123.415,326.674,127.832,321.026,127.832z M321.448,111.432
		c-2.495,0-4.915,1.92-4.915,6.3c0,4.301,1.689,6.567,4.878,6.567c2.649,0,4.877-2.073,4.877-6.491
		C326.288,113.736,324.715,111.432,321.448,111.432z"/>
	<path fill="#000000" d="M347.688,127.448v-12.252c0-2.382-0.654-3.805-2.844-3.805c-2.881,0-4.992,3.036-4.992,6.876v9.181h-4.109
		v-19.09h3.916c0,1.037-0.076,2.688-0.269,3.765h0.038c1.115-2.458,3.42-4.148,6.646-4.148c4.339,0,5.685,2.766,5.685,6.108v13.365
		H347.688z"/>
</g>
<g>
	<path fill="#000000" d="M160.792,148.555v22.394h-4.188v-22.394H149.5v-3.532h18.437v3.532H160.792z"/>
	<path fill="#000000" d="M183.92,161.73h-12.175c-0.115,4.34,1.844,6.298,5.646,6.298c1.843,0,3.765-0.384,5.492-1.151l0.537,3.227
		c-1.997,0.805-4.379,1.229-6.759,1.229c-5.878,0-9.144-3.072-9.144-9.794c0-5.762,3.15-10.063,8.721-10.063
		c5.453,0,7.797,3.727,7.797,8.257C184.036,160.271,183.997,160.923,183.92,161.73z M176.085,154.509
		c-2.306,0-3.917,1.69-4.263,4.378h8.104C180.003,156.16,178.505,154.509,176.085,154.509z"/>
	<path fill="#000000" d="M196.407,171.255c-4.916,0-8.489-2.42-8.489-9.218c0-6.068,3.111-10.485,9.488-10.485
		c1.613,0,3.188,0.23,4.455,0.729l-0.69,3.495c-1.153-0.461-2.575-0.808-3.995-0.808c-3.227,0-4.955,2.689-4.955,6.607
		c0,3.494,1.229,6.146,4.992,6.146c1.499,0,2.92-0.27,4.111-0.845l0.614,3.418C200.363,170.948,198.327,171.255,196.407,171.255z"/>
	<path fill="#000000" d="M218.727,170.948v-12.252c0-2.382-0.652-3.805-2.841-3.805c-2.881,0-4.995,3.036-4.995,6.876v9.181h-4.108
		V142.91h4.108v8.679c0,1.191-0.076,2.767-0.344,3.842l0.076,0.039c1.114-2.421,3.38-3.995,6.49-3.995
		c4.341,0,5.686,2.766,5.686,6.108v13.365H218.727z"/>
	<path fill="#000000" d="M241.508,170.948v-12.252c0-2.382-0.653-3.805-2.842-3.805c-2.88,0-4.993,3.036-4.993,6.876v9.181h-4.11
		v-19.09h3.919c0,1.037-0.077,2.688-0.271,3.765h0.04c1.114-2.458,3.417-4.148,6.645-4.148c4.34,0,5.684,2.766,5.684,6.108v13.365
		H241.508z"/>
	<path fill="#000000" d="M259.488,171.332c-5.3,0-8.756-2.958-8.756-9.679c0-5.761,3.725-10.179,9.524-10.179
		c5.108,0,8.719,2.842,8.719,9.564C268.976,166.915,265.135,171.332,259.488,171.332z M259.91,154.932
		c-2.495,0-4.916,1.92-4.916,6.3c0,4.301,1.69,6.567,4.879,6.567c2.649,0,4.877-2.073,4.877-6.491
		C264.75,157.236,263.176,154.932,259.91,154.932z"/>
	<path fill="#000000" d="M274.205,170.948V142.91h4.108v28.038H274.205z"/>
	<path fill="#000000" d="M292.22,171.332c-5.3,0-8.759-2.958-8.759-9.679c0-5.761,3.728-10.179,9.527-10.179
		c5.108,0,8.719,2.842,8.719,9.564C301.707,166.915,297.866,171.332,292.22,171.332z M292.642,154.932
		c-2.496,0-4.915,1.92-4.915,6.3c0,4.301,1.688,6.567,4.878,6.567c2.649,0,4.877-2.073,4.877-6.491
		C297.481,157.236,295.908,154.932,292.642,154.932z"/>
	<path fill="#000000" d="M313.465,180.704c-4.994,0-8.104-1.998-8.104-5.724c0-2.113,1.46-3.993,3.11-4.917
		c-1.151-0.499-1.882-1.574-1.882-2.88c0-1.382,0.884-2.689,2.19-3.304c-1.769-0.998-2.843-2.726-2.843-5.224
		c0-3.841,2.843-7.182,8.259-7.182c1.114,0,1.882,0.153,2.88,0.384h6.491v3.227h-2.918c0.805,0.691,1.267,1.767,1.267,3.034
		c0,3.994-2.689,6.914-8.105,6.914c-0.691,0-1.19-0.077-1.804-0.231c-0.73,0.346-1.114,0.924-1.114,1.423
		c0,0.998,0.883,1.267,3.149,1.381l3.228,0.116c4.147,0.153,6.45,1.997,6.45,5.531C323.719,177.361,319.61,180.704,313.465,180.704z
		 M316.114,170.987l-3.495-0.116c-0.346,0-0.729,0-1.036,0c-1.307,0.922-2.151,2.073-2.151,3.38c0,2.036,1.92,3.266,4.687,3.266
		c3.572,0,5.529-1.613,5.529-3.688C319.647,172.178,318.573,171.102,316.114,170.987z M314.002,154.509
		c-2.573,0-4.071,1.651-4.071,3.842c0,2.381,1.421,3.802,3.995,3.802c2.496,0,4.032-1.421,4.032-3.802
		C317.958,156.007,316.537,154.509,314.002,154.509z"/>
	<path fill="#000000" d="M336.859,172.292c-2.381,6.376-4.915,8.335-9.256,8.335c-0.729,0-1.768-0.116-2.42-0.229l0.461-3.572
		c0.653,0.191,1.575,0.307,2.344,0.307c1.804,0,3.494-0.885,4.763-4.302l0.69-1.882l-7.144-19.09h4.608l3.112,8.719
		c0.613,1.689,1.075,3.38,1.497,4.992h0.037c0.386-1.534,1.191-4.031,1.883-5.952l2.728-7.759h4.417L336.859,172.292z"/>
	<path fill="#000000" d="M363.935,171.332c-2.227,0-4.188-0.268-5.838-0.729l0.46-3.995c1.689,0.654,3.571,1.077,5.533,1.077
		c2.726,0,5.069-1.114,5.069-3.958c0-5.453-11.369-3.149-11.369-11.522c0-4.454,3.38-7.567,9.371-7.567
		c1.46,0,3.264,0.192,4.686,0.5l-0.422,3.688c-1.383-0.461-2.92-0.729-4.455-0.729c-3.266,0-4.763,1.458-4.763,3.61
		c0,5.186,11.483,3.303,11.483,11.485C373.69,167.914,369.812,171.332,363.935,171.332z"/>
	<path fill="#000000" d="M393.976,161.73h-12.177c-0.116,4.34,1.844,6.298,5.646,6.298c1.844,0,3.765-0.384,5.494-1.151l0.537,3.227
		c-1.999,0.805-4.378,1.229-6.76,1.229c-5.878,0-9.142-3.072-9.142-9.794c0-5.762,3.15-10.063,8.718-10.063
		c5.455,0,7.798,3.727,7.798,8.257C394.09,160.271,394.051,160.923,393.976,161.73z M386.14,154.509
		c-2.305,0-3.918,1.69-4.264,4.378h8.104C390.058,156.16,388.559,154.509,386.14,154.509z"/>
	<path fill="#000000" d="M409.267,155.547c-3.805-0.731-5.647,1.92-5.647,7.644v7.758h-4.11v-19.09h3.918
		c0,1.076-0.114,2.767-0.386,4.225h0.079c0.845-2.572,2.765-4.954,6.337-4.57L409.267,155.547z"/>
	<path fill="#000000" d="M422.903,170.948h-4.186l-7.145-19.09h4.531l3.571,10.103c0.461,1.306,0.885,2.649,1.231,3.918h0.037
		c0.308-1.191,0.691-2.535,1.114-3.766l3.648-10.255h4.418L422.903,170.948z"/>
	<path fill="#000000" d="M436.197,148.479c-1.461,0-2.65-1.114-2.65-2.574c0-1.42,1.189-2.572,2.65-2.572
		c1.421,0,2.611,1.152,2.611,2.572C438.809,147.327,437.618,148.479,436.197,148.479z M434.122,170.948v-19.09h4.11v19.09H434.122z"
		/>
	<path fill="#000000" d="M451.946,171.255c-4.916,0-8.489-2.42-8.489-9.218c0-6.068,3.113-10.485,9.487-10.485
		c1.613,0,3.189,0.23,4.456,0.729l-0.691,3.495c-1.153-0.461-2.574-0.808-3.994-0.808c-3.227,0-4.956,2.689-4.956,6.607
		c0,3.494,1.23,6.146,4.995,6.146c1.497,0,2.918-0.27,4.109-0.845l0.614,3.418C455.902,170.948,453.866,171.255,451.946,171.255z"/>
	<path fill="#000000" d="M477.186,161.73h-12.177c-0.114,4.34,1.845,6.298,5.646,6.298c1.845,0,3.764-0.384,5.493-1.151l0.538,3.227
		c-1.998,0.805-4.38,1.229-6.762,1.229c-5.875,0-9.141-3.072-9.141-9.794c0-5.762,3.149-10.063,8.719-10.063
		c5.454,0,7.797,3.727,7.797,8.257C477.3,160.271,477.263,160.923,477.186,161.73z M469.35,154.509c-2.305,0-3.919,1.69-4.265,4.378
		h8.105C473.268,156.16,471.771,154.509,469.35,154.509z"/>
	<path fill="#000000" d="M485.946,171.332c-1.46,0-3.034-0.191-4.224-0.538l0.306-3.494c1.191,0.461,2.728,0.729,4.188,0.729
		c2.149,0,3.649-0.959,3.649-2.496c0-3.918-8.375-1.537-8.375-8.143c0-3.343,2.535-5.915,7.797-5.915
		c1.153,0,2.497,0.153,3.612,0.384l-0.232,3.304c-1.112-0.347-2.38-0.537-3.609-0.537c-2.267,0-3.342,0.922-3.342,2.38
		c0,3.765,8.45,1.691,8.45,8.105C494.166,168.72,491.017,171.332,485.946,171.332z"/>
</g>
</svg>
